<svg width="89" height="89" viewBox="0 0 89 89" fill="none" xmlns="http://www.w3.org/2000/svg">
<path d="M53.7708 37.0837C50.6929 37.0837 48.2083 34.5991 48.2083 31.5212V12.9795C48.2083 9.90158 50.6929 7.41699 53.7708 7.41699C56.8487 7.41699 59.3333 9.90158 59.3333 12.9795V31.5212C59.3333 34.5991 56.8487 37.0837 53.7708 37.0837Z" stroke="white" stroke-width="4" stroke-linecap="round" stroke-linejoin="round"/>
<path d="M76.0208 37.0837H70.4583V31.5212C70.4583 28.4432 72.9429 25.9587 76.0208 25.9587C79.0987 25.9587 81.5833 28.4432 81.5833 31.5212C81.5833 34.5991 79.0987 37.0837 76.0208 37.0837Z" stroke="white" stroke-width="4" stroke-linecap="round" stroke-linejoin="round"/>
<path d="M35.2291 51.917C38.307 51.917 40.7916 54.4016 40.7916 57.4795V76.0212C40.7916 79.0991 38.307 81.5837 35.2291 81.5837C32.1512 81.5837 29.6666 79.0991 29.6666 76.0212V57.4795C29.6666 54.4016 32.1512 51.917 35.2291 51.917Z" stroke="white" stroke-width="4" stroke-linecap="round" stroke-linejoin="round"/>
<path d="M12.9791 51.917H18.5416V57.4795C18.5416 60.5574 16.057 63.042 12.9791 63.042C9.90121 63.042 7.41663 60.5574 7.41663 57.4795C7.41663 54.4016 9.90121 51.917 12.9791 51.917Z" stroke="white" stroke-width="4" stroke-linecap="round" stroke-linejoin="round"/>
<path d="M51.9166 53.7712C51.9166 50.6932 54.4012 48.2087 57.4791 48.2087H76.0208C79.0987 48.2087 81.5833 50.6932 81.5833 53.7712C81.5833 56.8491 79.0987 59.3337 76.0208 59.3337H57.4791C54.4012 59.3337 51.9166 56.8491 51.9166 53.7712Z" stroke="white" stroke-width="4" stroke-linecap="round" stroke-linejoin="round"/>
<path d="M57.4791 70.4587H51.9166V76.0212C51.9166 79.0991 54.4012 81.5837 57.4791 81.5837C60.557 81.5837 63.0416 79.0991 63.0416 76.0212C63.0416 72.9432 60.557 70.4587 57.4791 70.4587Z" stroke="white" stroke-width="4" stroke-linecap="round" stroke-linejoin="round"/>
<path d="M37.0833 35.2295C37.0833 32.1516 34.5987 29.667 31.5208 29.667H12.9791C9.90121 29.667 7.41663 32.1516 7.41663 35.2295C7.41663 38.3074 9.90121 40.792 12.9791 40.792H31.5208C34.5987 40.792 37.0833 38.3074 37.0833 35.2295Z" stroke="white" stroke-width="4" stroke-linecap="round" stroke-linejoin="round"/>
<path d="M31.5208 18.542H37.0833V12.9795C37.0833 9.90158 34.5987 7.41699 31.5208 7.41699C28.4429 7.41699 25.9583 9.90158 25.9583 12.9795C25.9583 16.0574 28.4429 18.542 31.5208 18.542Z" stroke="white" stroke-width="4" stroke-linecap="round" stroke-linejoin="round"/>
</svg>
