<svg width="525" height="105" viewBox="0 0 525 105" fill="none" xmlns="http://www.w3.org/2000/svg">
<g filter="url(#filter0_d_96_2417)">
<path d="M157.5 0L169.287 36.2766H207.43L176.572 58.6968L188.359 94.9734L157.5 72.5532L126.641 94.9734L138.428 58.6968L107.57 36.2766H145.713L157.5 0Z" fill="#FFFEFB"/>
<path d="M262.5 0L274.287 36.2766H312.43L281.572 58.6968L293.359 94.9734L262.5 72.5532L231.641 94.9734L243.428 58.6968L212.57 36.2766H250.713L262.5 0Z" fill="#FFFEFB"/>
<path d="M367.5 0L379.287 36.2766H417.43L386.572 58.6968L398.359 94.9734L367.5 72.5532L336.641 94.9734L348.428 58.6968L317.57 36.2766H355.713L367.5 0Z" fill="#FFFEFB"/>
<path d="M472.5 0L484.287 36.2766H522.43L491.572 58.6968L503.359 94.9734L472.5 72.5532L441.641 94.9734L453.428 58.6968L422.57 36.2766H460.713L472.5 0Z" fill="#FFFEFB"/>
<path d="M52.5 0L64.287 36.2766H102.43L71.5717 58.6968L83.3587 94.9734L52.5 72.5532L21.6413 94.9734L33.4283 58.6968L2.56953 36.2766H40.713L52.5 0Z" fill="#FFFEFB"/>
</g>
<defs>
<filter id="filter0_d_96_2417" x="-4" y="0" width="533" height="113" filterUnits="userSpaceOnUse" color-interpolation-filters="sRGB">
<feFlood flood-opacity="0" result="BackgroundImageFix"/>
<feColorMatrix in="SourceAlpha" type="matrix" values="0 0 0 0 0 0 0 0 0 0 0 0 0 0 0 0 0 0 127 0" result="hardAlpha"/>
<feOffset dy="4"/>
<feGaussianBlur stdDeviation="2"/>
<feComposite in2="hardAlpha" operator="out"/>
<feColorMatrix type="matrix" values="0 0 0 0 0 0 0 0 0 0 0 0 0 0 0 0 0 0 0.25 0"/>
<feBlend mode="normal" in2="BackgroundImageFix" result="effect1_dropShadow_96_2417"/>
<feBlend mode="normal" in="SourceGraphic" in2="effect1_dropShadow_96_2417" result="shape"/>
</filter>
</defs>
</svg>
